# xmcd CD database file
#
# Track frame offsets:
#	150
#	21524
#	35023
#	59950
#	85939
#	104416
#	121475
#	143233
#	159547
#	183920
#	206514
#	221644
#	240971
#
# Disc length: 3412 seconds
#
# Revision: 0
# Processed by: cddbd v1.5.2PL0 Copyright (c) Steve Scherf et al.
# Submitted via: CDex 1.70beta2
#
DISCID=c00d520d
DTITLE=Bakken, Rebekka - September
DYEAR=2011
DGENRE=Jazz
TTITLE0=September
TTITLE1=Strange Evening
TTITLE2=Love Is Everything
TTITLE3=Forever Young
TTITLE4=Same Kind
TTITLE5=Never Been To Paris
TTITLE6=Driving
TTITLE7=The Wrestler
TTITLE8=Mina's Dream
TTITLE9=After All
TTITLE10=Girl Next Door
TTITLE11=Innocent Thief
TTITLE12=I Will Get By
EXTD=YEAR: 2011
EXTT0=
EXTT1=
EXTT2=
EXTT3=
EXTT4=
EXTT5=
EXTT6=
EXTT7=
EXTT8=
EXTT9=
EXTT10=
EXTT11=
EXTT12=
PLAYORDER=
